<?xml version="1.0" encoding="UTF-8"?>
<svg id="Camada_2" data-name="Camada 2" xmlns="http://www.w3.org/2000/svg" viewBox="0 0 1472.98 533.99">
  <defs>
    <style>
      .cls-1 {
        fill: #fff;
      }
    </style>
  </defs>
  <g id="Camada_1-2" data-name="Camada 1">
    <g>
      <path class="cls-1" d="M196.04,283.79h-86.8l34.46-121.25c7.54-26.44,9.74-44.91,9.74-44.91h1.06s1.58,18.97,8.63,44.91l32.92,121.25ZM241.71,413.63h58.53c8.12-.09,14.7-6.74,14.7-14.92,0-1.66-.29-3.3-.83-4.81L203.63,51.67c-1.88-6.02-7.52-10.26-14.06-10.26h-63.7c-6.69,0-12.41,4.51-14.25,10.8L.84,393.93c-.1.13-.15.27-.15.41-.4,1.38-.7,2.87-.7,4.37,0,8.26,6.61,14.92,14.85,14.92h46.67c6.8,0,12.55-4.58,14.24-10.79l20.58-68.74h111.5l19.5,68.51c.07.17.09.29.09.41,1.9,6.08,7.45,10.54,14.21,10.61h.07Z"/>
      <path class="cls-1" d="M323.99,41.02c0-5.94,3.51-11.08,8.47-13.47l47.12-24.73c2.61-1.58,6.48-2.82,9.7-2.82,8.2,0,14.84,6.67,14.84,14.92v311.15c.16,18.51,16.51,33.24,35,33.24,8.12,0,14.75,6.67,14.75,14.92v24.15c0,8.24-6.63,14.89-14.75,14.89h-16.28c-54.55,0-98.85-44.43-98.85-99.17V41.02Z"/>
      <path class="cls-1" d="M690.95,140.78c5.04,2.39,8.63,7.62,8.63,13.68v256.24c0,81-50.35,120.27-124.3,123.13-35.98,1.46-66.06-6.84-90.72-17.9l-.19-.06c-5.43-2.18-9.37-7.64-9.37-13.94,0-1.88.38-3.68.96-5.25l8-20.57c1.92-6.1,7.62-10.51,14.28-10.51,2.01,0,3.98.47,5.7,1.16.15.03.2.03.29.08,15.9,6.21,35.67,10.48,56.11,10.48,43.19,0,59.05-20.68,59.05-53.52v-15.85c-9.49,5.31-25.87,9-49.55,9-68.06,0-117.12-52.4-117.12-137.71,0-95.27,48.51-155.11,146.08-155.11,37.77,0,70.63,6.74,91.66,16.43.22,0,.32.18.51.23M619.37,362.93v-186.36c-6.31-3.2-15.9-4.79-26.98-4.79-42.27,0-59.56,34.38-59.56,102.71,0,64.6,16.76,95.33,57.94,95.33,11.05,0,21.79-2.65,28.61-6.89"/>
      <path class="cls-1" d="M894.41,372.9v-108.7c-46.66-3.68-85.22,13.58-85.22,58.75,0,33.06,19.72,52.71,53.96,52.71,22.08,0,31.26-2.76,31.26-2.76M974.76,276.54v110.6c0,5.97-3.7,11.12-9.01,13.6-.16.04-.3.11-.47.2-24.92,9.81-62.33,16.64-106.6,16.64-85.81,0-131.09-31.13-131.09-89.89,0-72.91,59.93-106.68,166.73-101.31-2.53-28.18-19.13-45.56-58.72-45.56-20.52,0-40.27,4.25-56.17,10.48-.07,0-.13,0-.22.02-1.69.81-3.7,1.21-5.74,1.21-6.65,0-12.38-4.46-14.28-10.52l-7.99-20.51c-.58-1.68-.93-3.44-.93-5.24,0-6.33,3.85-11.74,9.34-14.06h.16c24.7-11.05,54.81-19.37,90.76-17.89,73.98,2.91,124.23,42.07,124.23,123.11v29.13Z"/>
      <path class="cls-1" d="M1014.85,160.63c0-11.56,8.17-20.89,18.78-24.48,27.31-9.43,63.22-14.1,116.91-12.62h.44c8.17,0,14.72,6.58,14.86,14.79v20.12c0,8.32-6.66,14.92-14.86,14.92-.54,0-1.18,0-1.71-.03-19.9-1.74-43.86,2.4-54.39,7.27v218.58c-.19,8.03-6.69,14.46-14.82,14.46h-50.29c-8.28,0-14.91-6.65-14.91-14.9,0-.34,0-.64.06-.91l-.06-236.93v-.24Z"/>
      <path class="cls-1" d="M1357.09,219.32c.11-4.98,2.72-9.76,7.32-12.46,4.98-2.86,10.85-2.57,15.32.31,0,0,85.96,49.77,86.07,49.87l.12.05c4.23,2.62,7.06,7.32,7.06,12.78s-3.24,10.64-7.89,13.16c0,0-85.88,49.7-86.13,49.87l-.12.08c-4.3,2.36-9.81,2.45-14.44-.24-4.97-2.84-7.6-8.13-7.32-13.52v-99.89Z"/>
      <path class="cls-1" d="M1225.14,145.95c.11-4.97,2.77-9.76,7.45-12.51,4.96-2.82,10.78-2.52,15.4.36,0,0,85.83,49.73,86,49.82l.06.08c4.2,2.61,7.11,7.31,7.11,12.71,0,5.74-3.25,10.68-8,13.19,0,0-85.88,49.82-86,49.9l-.1.05c-4.4,2.39-9.91,2.5-14.47-.17-4.96-2.92-7.67-8.21-7.41-13.53l-.03-40.77v-59.14Z"/>
      <path class="cls-1" d="M1225.14,292.75c.11-5.05,2.77-9.82,7.45-12.46,4.96-2.87,10.78-2.59,15.4.29,0,0,85.83,49.77,86,49.88h.06c4.2,2.62,7.11,7.39,7.11,12.71,0,5.73-3.25,10.73-8,13.25,0,0-85.88,49.74-86,49.88l-.1.06c-4.4,2.39-9.91,2.43-14.47-.27-4.96-2.8-7.67-8.14-7.41-13.48l-.03-40.77v-59.08Z"/>
    </g>
  </g>
</svg>