<svg width="100" height="24.24" viewBox="0 0 297 72" fill="none" xmlns="http://www.w3.org/2000/svg">
    <path d="M246.327 15.187C246.327 18.9947 243.241 22.0806 239.433 22.0806C235.626 22.0806 232.543 18.9947 232.543 15.187C232.543 11.3793 235.629 8.29333 239.433 8.29333C243.241 8.29626 246.327 11.3822 246.327 15.187Z" fill="#F3953F"></path>
    <path d="M189.098 71.8384C185.477 71.8384 182.543 68.9044 182.543 65.2837V33.1679C182.543 13.1766 197.219 0.00292513 215.258 0.00292513H218.949C222.57 0.00292513 225.504 2.93689 225.504 6.55759C225.504 10.1783 222.57 13.1123 218.949 13.1123H215.258C204.446 13.1123 195.65 21.4963 195.65 34.6378V65.2866C195.653 68.9044 192.719 71.8384 189.098 71.8384ZM260.226 71.9523C280.063 71.9523 296.202 55.8126 296.202 35.9762C296.202 16.1397 280.063 0 260.226 0C256.605 0 253.671 2.93397 253.671 6.55468C253.671 10.1754 256.605 13.1093 260.226 13.1093C272.836 13.1093 283.093 23.3695 283.093 35.9791C283.093 48.5887 272.836 58.8459 260.226 58.8459C247.616 58.8459 237.359 48.5858 237.359 35.9791C237.359 32.3584 234.425 29.4244 230.805 29.4244C227.184 29.4244 224.25 32.3584 224.25 35.9791C224.253 55.8155 240.39 71.9523 260.226 71.9523ZM51.1605 57.9459C50.5205 59.1849 48.7496 59.1849 48.1125 57.9459L26.3971 15.8504C22.2153 7.97783 15.9412 2.46933 8.58873 0.283461C5.22811 -0.715958 1.56357 1.00819 0.394663 4.31329C-0.87945 7.91645 1.02588 11.2303 4.74886 12.8171C8.56828 14.4448 11.6016 16.3735 14.7284 21.806L36.7449 64.1265C42.1745 74.5619 57.1044 74.5619 62.534 64.1265L84.5504 21.806C87.6773 16.3735 90.7106 14.4448 94.53 12.8171C98.253 11.2303 100.158 7.91645 98.8842 4.31329C97.7153 1.00819 94.0478 -0.713036 90.6901 0.283461C83.3377 2.4664 77.0636 7.97783 72.8818 15.8504L51.1605 57.9459ZM165.655 62.002C157.949 68.5128 148.469 72.4696 135.495 71.9553C115.059 71.1429 99.7024 55.8155 99.7024 35.9791C99.7024 16.1427 115.842 0.00292513 135.679 0.00292513C158.069 0.00292513 167.119 11.1222 167.119 23.3402C167.119 36.169 158.794 44.7927 142.599 44.7927H114.548C114.641 45.0177 114.743 45.2398 114.846 45.4619C114.881 45.5379 114.916 45.6168 114.951 45.6927C115.053 45.9061 115.158 46.1165 115.264 46.324C115.302 46.397 115.34 46.4701 115.378 46.5431C115.492 46.7594 115.611 46.9756 115.731 47.1889C115.752 47.2269 115.775 47.262 115.798 47.3C116.383 48.3023 117.046 49.255 117.78 50.1463C117.783 50.1522 117.788 50.1551 117.791 50.1609C117.978 50.3889 118.171 50.6139 118.367 50.833C122.616 55.5876 128.954 58.5362 136.164 58.8459C145.974 59.2696 151.88 56.476 157.192 51.9873C159.957 49.6524 164.092 50.0002 166.43 52.7647C168.768 55.5291 168.42 59.6642 165.655 62.002ZM114.837 26.6424C114.109 28.2321 113.563 29.9183 113.224 31.6833H130.161H142.599C151.362 31.6833 154.18 28.615 154.18 23.501C154.18 19.0299 150.375 12.6944 135.679 13.1093C126.421 13.3724 118.428 18.7903 114.837 26.6424Z" fill="white"></path>
</svg>